<svg width="40" height="40" viewBox="0 0 35 35" fill="none" xmlns="http://www.w3.org/2000/svg">
<path d="M17.7886 2.58129L17.7886 2.58129C18.869 2.80842 19.7395 3.3877 20.3198 4.25924C20.4775 4.49601 21.2758 5.84504 22.096 7.26184L22.096 7.26185C22.9146 8.67586 23.9939 10.5346 24.4948 11.3925C24.9952 12.2499 26.0757 14.1079 26.8956 15.5213L27.0517 15.4307L26.8956 15.5213C27.7158 16.9349 29.2732 19.6091 30.3566 21.464C32.8678 25.7634 32.8963 25.8187 33.0997 26.4229C33.2936 26.9991 33.3174 27.8134 33.1571 28.4071L33.3313 28.4541L33.1571 28.4071C32.9622 29.1291 32.3559 30.1521 31.4766 30.8175C30.6075 31.4753 29.4866 31.7759 28.2216 31.1062C27.7713 30.8678 27.1599 30.2747 26.4843 29.4901C25.8147 28.7125 25.1003 27.769 24.4443 26.8546C23.7886 25.9407 23.1931 25.0584 22.7613 24.4045C22.5455 24.0775 22.3707 23.8078 22.2499 23.6199C22.1895 23.5259 22.1426 23.4525 22.1108 23.4025L22.0748 23.3456L22.0656 23.3311L22.065 23.3301L17.2238 14.7105L17.2163 14.6935C17.2089 14.677 17.1981 14.653 17.1838 14.6221C17.1551 14.5604 17.1127 14.4714 17.0569 14.3608C16.9455 14.1397 16.7804 13.8318 16.5654 13.4833C16.1365 12.7881 15.5034 11.9219 14.6931 11.2616C13.555 10.3343 12.076 10.5055 10.9274 10.875C10.3477 11.0615 9.83748 11.3029 9.47277 11.4972C9.47188 11.4977 9.47099 11.4982 9.4701 11.4986L13.4337 4.5099C14.0732 3.47582 14.9745 2.8271 16.0974 2.5848C16.7553 2.44284 17.1263 2.44201 17.7886 2.58129Z" fill="url(#paint0_linear_399_48)" stroke="black" stroke-width="0.360914"/>
<path d="M32.1028 30.1404L32.1028 30.1404C31.3659 30.9625 30.4289 31.4267 29.384 31.4936C29.1001 31.5117 27.5327 31.5286 25.8956 31.5304L25.8956 31.5304C24.2617 31.5324 22.1123 31.5377 21.1189 31.5425C20.1261 31.5472 17.9769 31.5539 16.3429 31.5574L16.3433 31.7378L16.3429 31.5574C14.7086 31.5609 11.6139 31.5725 9.46581 31.5833C4.48685 31.6083 4.42469 31.6054 3.79979 31.4794C3.20385 31.3593 2.48672 30.9727 2.05272 30.537L1.92487 30.6644L2.05271 30.537C1.52489 30.0072 0.942114 28.9706 0.805463 27.8765C0.670382 26.795 0.970453 25.6739 2.18298 24.9132C2.61453 24.6425 3.43392 24.4095 4.45119 24.2167C5.45938 24.0256 6.63374 23.8787 7.75361 23.7678C8.87288 23.6569 9.93475 23.5822 10.717 23.5353C11.108 23.5119 11.429 23.4954 11.6522 23.4847C11.7637 23.4794 11.8508 23.4755 11.9099 23.473L11.9772 23.4702L11.9943 23.4695L11.9955 23.4695L21.881 23.5867L21.8994 23.5887C21.9174 23.5906 21.9436 23.5932 21.9775 23.5962C22.0452 23.6023 22.1435 23.61 22.2672 23.617C22.5144 23.631 22.8636 23.642 23.273 23.6301C24.0894 23.6063 25.1562 23.4911 26.1331 23.1194C27.5012 22.599 28.1284 21.2619 28.4174 20.1055C28.5631 19.5225 28.6264 18.972 28.6535 18.568C28.654 18.5618 28.6544 18.5557 28.6548 18.5495L32.6096 25.4041C33.1857 26.4751 33.297 27.5802 32.9453 28.674C32.7393 29.3148 32.5545 29.6365 32.1028 30.1404Z" fill="url(#paint1_linear_399_48)" stroke="black" stroke-width="0.360914"/>
<path d="M1.01489 28.8194L1.01488 28.8194C0.671396 27.7702 0.737816 26.7267 1.20242 25.7883C1.32864 25.5334 2.09777 24.1675 2.91469 22.7489L2.91469 22.7489C3.72996 21.3329 4.8 19.4688 5.29255 18.6061C5.78487 17.744 6.85371 15.8793 7.66773 14.4625L7.51126 14.3726L7.66774 14.4625C8.48186 13.0454 10.0191 10.3595 11.0838 8.49382C13.5516 4.16941 13.5852 4.11703 14.0068 3.63884C14.2035 3.41568 14.5025 3.18266 14.8334 2.98395C15.1639 2.78549 15.5142 2.62843 15.8079 2.55035L15.7615 2.37595L15.8079 2.55035C16.5295 2.35844 17.6894 2.38324 18.6767 2.82242C19.6519 3.25626 20.449 4.08758 20.5017 5.52176C20.5204 6.03086 20.3124 6.85695 19.9708 7.83433C19.6322 8.80299 19.1722 9.89347 18.7084 10.9188C18.2447 11.9435 17.7784 12.9005 17.428 13.6014C17.2527 13.9517 17.1066 14.238 17.0042 14.4366C16.953 14.5358 16.9128 14.6132 16.8855 14.6656L16.8542 14.7253L16.8463 14.7405L16.8457 14.7416L11.8015 23.2439L11.7905 23.2589C11.7799 23.2736 11.7646 23.295 11.745 23.3228C11.7059 23.3784 11.65 23.4597 11.5821 23.5633C11.4463 23.7704 11.2622 24.0673 11.0679 24.4278C10.6803 25.1467 10.2467 26.1282 10.08 27.1601C9.846 28.6093 10.7337 29.8046 11.6281 30.6146C12.0795 31.0233 12.5436 31.3445 12.8942 31.5632C12.8951 31.5637 12.8959 31.5643 12.8968 31.5648L4.86255 31.6266C3.64726 31.5898 2.63482 31.1336 1.86355 30.2823C1.41163 29.7835 1.22543 29.4627 1.01489 28.8194Z" fill="url(#paint2_linear_399_48)" stroke="black" stroke-width="0.360914"/>
<defs>
<linearGradient id="paint0_linear_399_48" x1="17.2986" y1="6.86903" x2="29.5166" y2="28.7038" gradientUnits="userSpaceOnUse">
<stop stop-color="#DF8399"/>
<stop offset="0.784832" stop-color="#92BDCC"/>
</linearGradient>
<linearGradient id="paint1_linear_399_48" x1="6.73512" y1="27.6792" x2="31.0135" y2="27.5216" gradientUnits="userSpaceOnUse">
<stop stop-color="#DF8399"/>
<stop offset="0.463542" stop-color="#D491C3"/>
<stop offset="1" stop-color="#92BDCC"/>
</linearGradient>
<linearGradient id="paint2_linear_399_48" x1="4.68646" y1="28.3885" x2="19.1904" y2="-1.17122" gradientUnits="userSpaceOnUse">
<stop stop-color="#DF8399"/>
<stop offset="1" stop-color="#92BDCC"/>
</linearGradient>
</defs>
</svg>
